<?xml version="1.0" encoding="utf-8"?>
<!-- Generator: Adobe Illustrator 26.0.2, SVG Export Plug-In . SVG Version: 6.00 Build 0)  -->
<svg version="1.1" id="Ebene_1" xmlns="http://www.w3.org/2000/svg" xmlns:xlink="http://www.w3.org/1999/xlink" x="0px" y="0px"
	 viewBox="0 0 271.8 401.2" style="enable-background:new 0 0 271.8 401.2;" xml:space="preserve">
<style type="text/css">
	.st0{fill:#111111;}
	.st1{fill:#0689FF;}
	.st2{fill:#FF005C;}
</style>
<g>
	<g>
		<polygon class="st0" points="271.8,96.5 220.6,138.7 215.2,54.5 168,95.4 135.9,0.2 135.9,0 135.9,0.1 135.9,0 135.9,0.2 
			103.8,95.4 56.6,54.5 51.2,138.7 0,96.5 19,210.5 135.9,142 252.8,210.5 		"/>
	</g>
	<polygon class="st0" points="240.1,341.3 240.1,221.7 136.4,161.8 32.7,221.7 32.7,341.3 136.4,401.2 	"/>
	<polygon class="st1" points="135.3,19 100.9,126.5 60.9,66.9 52.1,151.9 7.7,116 21.9,198.8 134.9,129.3 	"/>
	<polygon class="st2" points="137.3,16.4 165.7,101.6 163.7,114.7 	"/>
	<polygon class="st2" points="213.2,62.8 217.8,142.1 201.1,155.5 	"/>
	<path class="st2" d="M268.7,104c0,0-16.4,99-17.4,98.3c-1-0.7-35.8-21.1-35.8-21.1s31.4,10,31.4,9S268.7,104,268.7,104z"/>
	<polygon class="st2" points="234.2,228.3 231.6,334.3 135.6,390.5 190.1,319.3 170.7,287.9 223.5,322.3 	"/>
	<polygon class="st1" points="39.3,330.7 39.8,226.9 134,171.6 138,239.4 102.9,271.2 73.9,253.5 	"/>
</g>
</svg>
